<?xml version="1.0" encoding="utf-8"?>
<!-- Generator: Adobe Illustrator 24.0.0, SVG Export Plug-In . SVG Version: 6.00 Build 0)  -->
<svg version="1.1"
	 id="Layer_1" text-rendering="geometricPrecision" image-rendering="optimizeQuality" shape-rendering="geometricPrecision" xmlns:xodm="http://www.corel.com/coreldraw/odm/2003"
	 xmlns="http://www.w3.org/2000/svg" xmlns:xlink="http://www.w3.org/1999/xlink" x="0px" y="0px" viewBox="0 0 612 612"
	 enable-background="new 0 0 612 612" xml:space="preserve">
<g id="Layer_x0020_1">
	<circle fill-rule="evenodd" clip-rule="evenodd" fill="#FEFEFE" cx="306" cy="306" r="306"/>
	<polygon fill-rule="evenodd" clip-rule="evenodd" fill="#66B4B4" points="445.1,309.5 309.5,309.5 309.5,443.7 	"/>
	<polygon fill-rule="evenodd" clip-rule="evenodd" fill="#A1D1D1" points="457.7,491.3 309.5,456.6 309.5,554.5 	"/>
	<polygon fill-rule="evenodd" clip-rule="evenodd" fill="#A1D1D1" points="465.1,485.8 449.4,313.8 313,450.2 	"/>
	<polygon fill-rule="evenodd" clip-rule="evenodd" fill="#A1D1D1" points="555.3,309.5 456,309.5 471.4,477.6 	"/>
	<polygon fill-rule="evenodd" clip-rule="evenodd" fill="#CCE6E6" points="593.8,309.5 564.5,309.5 564.5,423.6 	"/>
	<polygon fill-rule="evenodd" clip-rule="evenodd" fill="#CCE6E6" points="476.4,483.4 557.5,449.1 557.5,321 	"/>
	<polygon fill-rule="evenodd" clip-rule="evenodd" fill="#A1D1D1" points="323.3,556.3 450.9,556.3 464.1,496.2 	"/>
	<polygon fill-rule="evenodd" clip-rule="evenodd" fill="#CCE6E6" points="546,461.6 472.1,492.9 459.7,548.7 	"/>
	<polygon fill-rule="evenodd" clip-rule="evenodd" fill="#A1D1D1" points="426.2,563.4 309.5,563.4 309.5,593.8 	"/>
	<polygon fill-rule="evenodd" clip-rule="evenodd" fill="#A1D1D1" points="302.5,563.4 186.8,563.4 302.5,593.8 	"/>
	<polygon fill-rule="evenodd" clip-rule="evenodd" fill="#A1D1D1" points="302.5,455.7 184.5,455.7 237.5,556.3 302.5,556.3 	"/>
	<polygon fill-rule="evenodd" clip-rule="evenodd" fill="#A1D1D1" points="176.6,455.7 95,455.7 184.6,556.3 229.5,556.3 	"/>
	<polygon fill-rule="evenodd" clip-rule="evenodd" fill="#66B4B4" points="85.5,455.7 60.8,455.7 160.9,556.3 175.1,556.3 	"/>
	<polygon fill-rule="evenodd" clip-rule="evenodd" fill="#A1D1D1" points="302.5,309.5 163.8,309.5 181.8,448.7 302.5,448.7 	"/>
	<polygon fill-rule="evenodd" clip-rule="evenodd" fill="#66B4B4" points="156.7,309.5 56.8,309.5 89.9,448.7 174.7,448.7 	"/>
	<polygon fill-rule="evenodd" clip-rule="evenodd" fill="#CCE6E6" points="49.5,309.5 18.2,309.5 55,448.7 82.6,448.7 	"/>
	<polygon fill-rule="evenodd" clip-rule="evenodd" fill="#66B4B4" points="166.9,302.5 302.5,302.5 302.5,168.3 	"/>
	<polygon fill-rule="evenodd" clip-rule="evenodd" fill="#66B4B4" points="154.3,120.7 302.5,155.4 302.5,57.5 	"/>
	<polygon fill-rule="evenodd" clip-rule="evenodd" fill="#99CDCD" points="146.9,126.2 162.6,298.2 299,161.8 	"/>
	<polygon fill-rule="evenodd" clip-rule="evenodd" fill="#99CDCD" points="56.7,302.5 156,302.5 140.6,134.4 	"/>
	<polygon fill-rule="evenodd" clip-rule="evenodd" fill="#66B4B4" points="18.2,302.5 47.5,302.5 47.5,188.4 	"/>
	<polygon fill-rule="evenodd" clip-rule="evenodd" fill="#CCE6E6" points="135.6,128.6 54.5,162.9 54.5,291 	"/>
	<polygon fill-rule="evenodd" clip-rule="evenodd" fill="#99CDCD" points="288.7,55.7 161.1,55.7 147.9,115.8 	"/>
	<polygon fill-rule="evenodd" clip-rule="evenodd" fill="#CCE6E6" points="66,150.4 139.9,119.1 152.3,63.3 	"/>
	<polygon fill-rule="evenodd" clip-rule="evenodd" fill="#CCE6E6" points="185.8,48.6 302.5,48.6 302.5,18.2 	"/>
	<polygon fill-rule="evenodd" clip-rule="evenodd" fill="#99CDCD" points="309.5,48.6 425.2,48.6 309.5,18.2 	"/>
	<polygon fill-rule="evenodd" clip-rule="evenodd" fill="#78BDBD" points="309.5,156.3 427.5,156.3 374.5,55.7 309.5,55.7 	"/>
	<polygon fill-rule="evenodd" clip-rule="evenodd" fill="#78BDBD" points="435.4,156.3 517,156.3 427.4,55.7 382.5,55.7 	"/>
	<polygon fill-rule="evenodd" clip-rule="evenodd" fill="#99CDCD" points="526.5,156.3 551.2,156.3 451.1,55.7 436.9,55.7 	"/>
	<polygon fill-rule="evenodd" clip-rule="evenodd" fill="#78BDBD" points="309.5,302.5 448.2,302.5 430.2,163.3 309.5,163.3 	"/>
	<polygon fill-rule="evenodd" clip-rule="evenodd" fill="#78BDBD" points="455.3,302.5 555.2,302.5 522.1,163.3 437.3,163.3 	"/>
	<polygon fill-rule="evenodd" clip-rule="evenodd" fill="#99CDCD" points="562.5,302.5 593.8,302.5 557,163.3 529.4,163.3 	"/>
</g>
</svg>
