<?xml version="1.0" standalone="no"?>
<!DOCTYPE svg PUBLIC "-//W3C//DTD SVG 20010904//EN"
 "http://www.w3.org/TR/2001/REC-SVG-20010904/DTD/svg10.dtd">
<svg version="1.0" xmlns="http://www.w3.org/2000/svg"
 width="1000.000000pt" height="1000.000000pt" viewBox="0 0 1000.000000 1000.000000"
 preserveAspectRatio="xMidYMid meet">
<metadata>
Created by potrace 1.14, written by Peter Selinger 2001-2017
</metadata>
<g transform="translate(0.000000,1000.000000) scale(0.100000,-0.100000)"
fill="#000000" stroke="none">
<path d="M5060 9636 l0 -266 982 0 c540 0 978 4 972 8 -5 5 -443 122 -974 262
-531 139 -968 254 -972 257 -5 2 -8 -115 -8 -261z"/>
<path d="M3943 9636 c-529 -138 -965 -255 -969 -259 -4 -4 437 -7 979 -7 l987
0 0 260 c0 241 -1 260 -17 259 -10 -1 -451 -114 -980 -253z"/>
<path d="M2422 8749 c-62 -282 -111 -513 -110 -514 4 -4 2358 1000 2378 1014
10 7 -342 10 -1070 10 l-1086 1 -112 -511z"/>
<path d="M5060 8400 l0 -860 1006 0 c553 0 1003 3 1001 8 -2 4 -205 391 -452
860 l-447 852 -554 0 -554 0 0 -860z"/>
<path d="M6303 9248 c9 -25 888 -1693 896 -1701 4 -4 319 -6 701 -5 l694 3
-764 858 -764 857 -384 0 c-303 0 -383 -3 -379 -12z"/>
<path d="M7232 9250 c3 -10 1476 -1666 1506 -1693 17 -16 42 -17 228 -15 l209
3 -854 858 -854 857 -119 0 c-73 0 -118 -4 -116 -10z"/>
<path d="M3678 8691 c-691 -295 -1254 -539 -1250 -542 10 -9 2502 -592 2508
-587 2 3 3 378 2 835 l-3 830 -1257 -536z"/>
<path d="M1652 8388 c-397 -402 -721 -733 -719 -734 4 -5 1228 513 1239 524
10 10 217 942 209 942 -3 0 -331 -330 -729 -732z"/>
<path d="M2295 8019 c3 -24 62 -663 130 -1419 68 -756 128 -1396 132 -1423 l8
-47 1160 1159 c637 638 1157 1162 1155 1164 -3 2 -578 138 -1279 302 -700 164
-1282 300 -1292 302 -17 5 -18 1 -14 -38z"/>
<path d="M1405 7724 c-368 -157 -673 -288 -677 -292 -5 -5 -7 -496 -6 -1093
l3 -1084 189 375 c473 938 1183 2380 1173 2379 -7 0 -313 -129 -682 -285z"/>
<path d="M1473 6494 l-712 -1429 841 -3 c463 -1 843 0 846 2 5 5 -245 2764
-256 2820 -7 38 -30 -6 -719 -1390z"/>
<path d="M5060 6245 l0 -1185 1181 0 1182 0 -5 33 c-3 17 -72 551 -154 1185
l-149 1152 -1027 0 -1028 0 0 -1185z"/>
<path d="M7233 7393 c3 -21 72 -554 153 -1185 l148 -1148 853 0 853 0 -5 23
c-210 879 -539 2265 -546 2300 l-11 47 -725 0 -726 0 6 -37z"/>
<path d="M8800 7413 c1 -10 126 -542 278 -1183 l278 -1165 270 -3 271 -2 -314
1182 c-172 651 -313 1184 -313 1186 0 1 -106 2 -235 2 -217 0 -235 -1 -235
-17z"/>
<path d="M3785 6204 l-1150 -1139 1149 -3 c632 -1 1151 -1 1153 1 2 2 2 516 1
1141 l-3 1138 -1150 -1138z"/>
<path d="M602 6990 c-2 -3 -115 -437 -251 -965 l-248 -960 250 -3 c138 -1 252
-1 254 1 1 2 2 438 0 968 -1 530 -4 962 -5 959z"/>
<path d="M110 4930 c0 -5 139 -536 310 -1180 171 -644 310 -1173 310 -1175 0
-3 106 -5 235 -5 156 0 235 3 235 10 0 10 -530 2245 -551 2323 l-10 37 -264 0
c-164 0 -265 -4 -265 -10z"/>
<path d="M765 4913 c11 -44 524 -2201 541 -2275 l16 -68 725 0 726 0 -6 38
c-3 20 -72 553 -153 1185 l-148 1147 -854 0 -854 0 7 -27z"/>
<path d="M2581 4928 c0 -7 69 -539 152 -1183 l152 -1170 1028 -3 1027 -2 0
1185 0 1185 -1180 0 c-938 0 -1180 -3 -1179 -12z"/>
<path d="M5060 3798 l0 -1143 143 140 c160 157 850 841 1639 1623 l526 522
-1154 0 -1154 0 0 -1142z"/>
<path d="M7550 4928 c0 -23 250 -2762 256 -2808 6 -45 6 -45 307 555 165 330
486 975 713 1433 l413 832 -845 0 c-668 0 -844 -3 -844 -12z"/>
<path d="M9391 3973 c0 -591 4 -960 9 -948 11 22 490 1887 490 1904 0 8 -76
11 -250 11 l-250 0 1 -967z"/>
<path d="M6275 3710 c-638 -638 -1157 -1161 -1155 -1163 6 -5 2583 -607 2586
-604 3 3 -264 2919 -268 2923 -2 2 -525 -518 -1163 -1156z"/>
<path d="M8589 3370 c-377 -756 -683 -1376 -680 -1378 8 -3 1352 565 1363 576
5 5 7 496 6 1093 l-3 1084 -686 -1375z"/>
<path d="M868 2413 c23 -27 407 -414 854 -861 l814 -813 121 3 122 3 -762 857
-762 857 -213 0 -214 1 40 -47z"/>
<path d="M1427 2436 c10 -14 353 -401 763 -860 l745 -836 384 0 c302 0 382 3
378 12 -3 7 -205 393 -450 858 l-445 845 -697 3 -697 2 19 -24z"/>
<path d="M2940 2449 c0 -6 201 -393 447 -860 l447 -849 553 0 553 0 0 860 0
860 -1000 0 c-722 0 -1000 -3 -1000 -11z"/>
<path d="M5060 1605 l0 -834 68 29 c37 16 603 257 1259 537 655 279 1189 511
1185 514 -6 6 -2488 589 -2505 589 -4 0 -7 -376 -7 -835z"/>
<path d="M8446 2089 c-335 -142 -613 -262 -618 -267 -9 -9 -217 -942 -210
-942 4 0 1061 1066 1336 1348 66 67 116 122 110 121 -5 -1 -283 -117 -618
-260z"/>
<path d="M6498 1261 c-653 -278 -1190 -510 -1194 -514 -4 -4 481 -7 1077 -7
l1085 0 112 511 c62 282 111 513 110 514 -2 2 -537 -225 -1190 -504z"/>
<path d="M2986 622 c5 -5 443 -122 974 -261 531 -140 968 -255 973 -258 4 -2
7 115 7 261 l0 266 -982 0 c-540 0 -978 -4 -972 -8z"/>
<path d="M5060 366 l0 -265 28 9 c15 5 455 120 977 256 523 135 957 250 965
255 8 5 -428 9 -977 9 l-993 0 0 -264z"/>
</g>
</svg>
